<svg xmlns="http://www.w3.org/2000/svg" width="410.252" height="90" viewBox="0 0 410.252 90">
  <g id="logo-black" transform="translate(-0.959)">
    <g id="_807604ab-15e9-4a31-9558-8c3d6e6e04a8" data-name="807604ab-15e9-4a31-9558-8c3d6e6e04a8" transform="translate(95.004 20.122)">
      <path id="Path_3" data-name="Path 3" d="M12.008,48.747h0a2.915,2.915,0,0,1-.882,2.141h0a2.879,2.879,0,0,1-2.183.882h0a2.965,2.965,0,0,1-2.183-.882h0a2.915,2.915,0,0,1-.882-2.141h0V8.943h0A3.017,3.017,0,0,1,6.76,6.718h0a3.044,3.044,0,0,1,2.183-.84H20.7A15.6,15.6,0,0,1,28.467,7.81h0a13.7,13.7,0,0,1,5.374,5.416h0a16.292,16.292,0,0,1,1.889,7.894h0a15.316,15.316,0,0,1-1.889,7.642h0a13.738,13.738,0,0,1-5.374,5.206h0A15.876,15.876,0,0,1,20.7,35.857H12.008ZM20.7,30.231h0a9.011,9.011,0,0,0,6.592-2.561h0a8.87,8.87,0,0,0,2.561-6.55h0a9.574,9.574,0,0,0-2.561-6.886h0A8.72,8.72,0,0,0,20.7,11.5H12.008V30.231ZM57.649,19.272h0a10.331,10.331,0,0,1,4.913.966h0a2.709,2.709,0,0,1,1.763,2.351h0a1.635,1.635,0,0,1-.084.588h0a2.244,2.244,0,0,1-2.351,1.847h0a6.843,6.843,0,0,1-.882-.084h0a22.721,22.721,0,0,0-3.821-.42h0a11.02,11.02,0,0,0-6.8,1.931h0a6.19,6.19,0,0,0-2.6,5.248h0V48.831h0a3.062,3.062,0,0,1-.714,2.183h0a3.017,3.017,0,0,1-2.225.756h0a3.156,3.156,0,0,1-2.183-.714h0a3.017,3.017,0,0,1-.756-2.225h0V22.589h0a2.956,2.956,0,0,1,.756-2.183h0a3.046,3.046,0,0,1,2.183-.756h0a2.6,2.6,0,0,1,2.939,2.939h0v1.092h0a12.364,12.364,0,0,1,4.367-3.233h0a13.026,13.026,0,0,1,5.5-1.176Zm27.418.126h0a16.529,16.529,0,0,1,8.313,2.1h0a14.867,14.867,0,0,1,5.752,5.794h0a16.781,16.781,0,0,1,2.1,8.439h0a16.967,16.967,0,0,1-2.057,8.4h0a14.5,14.5,0,0,1-5.752,5.794h0a16.465,16.465,0,0,1-8.355,2.1h0a16.7,16.7,0,0,1-8.4-2.1h0a14.432,14.432,0,0,1-5.794-5.794h0a16.967,16.967,0,0,1-2.057-8.4h0a17.053,17.053,0,0,1,2.057-8.439h0A14.432,14.432,0,0,1,76.669,21.5h0a16.7,16.7,0,0,1,8.4-2.1Zm0,5.29h0a10.149,10.149,0,0,0-5.374,1.428h0a9.663,9.663,0,0,0-3.737,3.9h0a12.1,12.1,0,0,0-1.344,5.71h0A11.7,11.7,0,0,0,75.955,41.4h0a9.663,9.663,0,0,0,3.737,3.9h0a10.149,10.149,0,0,0,5.374,1.428h0A10.289,10.289,0,0,0,90.441,45.3h0a9.387,9.387,0,0,0,3.695-3.9h0a11.7,11.7,0,0,0,1.344-5.668h0a12.1,12.1,0,0,0-1.344-5.71h0a9.387,9.387,0,0,0-3.695-3.9h0a10.289,10.289,0,0,0-5.374-1.428Zm52.82-18.81h0a2.868,2.868,0,0,1,2.183.84h0a2.814,2.814,0,0,1,.84,2.141h0v26.83h0A16.421,16.421,0,0,1,138.768,44h0a15.686,15.686,0,0,1-5.836,5.878h0a15.887,15.887,0,0,1-8.188,2.141h0a16.34,16.34,0,0,1-8.272-2.141h0A15.292,15.292,0,0,1,110.637,44h0a16.421,16.421,0,0,1-2.141-8.314h0a17.525,17.525,0,0,1,1.973-8.314h0a15.045,15.045,0,0,1,5.416-5.878h0a14.468,14.468,0,0,1,7.684-2.1h0a14.319,14.319,0,0,1,6.34,1.428h0a14.179,14.179,0,0,1,5,3.9h0V8.859h0a2.814,2.814,0,0,1,.84-2.141h0a2.991,2.991,0,0,1,2.141-.84ZM124.745,46.732h0a10.211,10.211,0,0,0,5.332-1.428h0a10.357,10.357,0,0,0,3.695-3.989h0a11.479,11.479,0,0,0,1.386-5.626h0a11.479,11.479,0,0,0-1.386-5.626h0a10.439,10.439,0,0,0-3.695-3.947h0a10.211,10.211,0,0,0-5.332-1.428h0a10.211,10.211,0,0,0-5.332,1.428h0a10.656,10.656,0,0,0-3.779,3.947h0a11.766,11.766,0,0,0-1.344,5.626h0a11.766,11.766,0,0,0,1.344,5.626h0a10.567,10.567,0,0,0,3.779,3.989h0a10.211,10.211,0,0,0,5.332,1.428Zm53.24-27.166h0a2.954,2.954,0,0,1,2.183.84h0a2.868,2.868,0,0,1,.84,2.183h0v26.2h0a2.9,2.9,0,0,1-.84,2.141h0a2.954,2.954,0,0,1-2.183.84h0a2.9,2.9,0,0,1-2.141-.84h0a2.9,2.9,0,0,1-.84-2.141h0v-.63h0a13.643,13.643,0,0,1-4.493,2.9h0a14.888,14.888,0,0,1-5.5,1.008h0A15.005,15.005,0,0,1,157.7,50.3h0a12.347,12.347,0,0,1-5.038-5.122h0a16.835,16.835,0,0,1-1.847-8.146h0V22.589h0a2.965,2.965,0,0,1,.882-2.183h0a2.9,2.9,0,0,1,2.141-.84h0a2.9,2.9,0,0,1,2.141.84h0a3.044,3.044,0,0,1,.84,2.183h0V37.033h0q0,4.745,2.561,7.222h0a9.463,9.463,0,0,0,6.8,2.435h0a9.9,9.9,0,0,0,4.493-1.008h0a8.233,8.233,0,0,0,3.191-2.729h0A6.67,6.67,0,0,0,175,39.132h0V22.589h0a2.868,2.868,0,0,1,.84-2.183h0a2.9,2.9,0,0,1,2.141-.84Zm27.88-.168h0a14.573,14.573,0,0,1,11.5,5.29h0a2.137,2.137,0,0,1,.588,1.512h0a2.583,2.583,0,0,1-1.3,2.183h0a2.254,2.254,0,0,1-1.344.42h0a2.906,2.906,0,0,1-2.267-1.05h0a9.476,9.476,0,0,0-3.233-2.351h0a10.233,10.233,0,0,0-3.947-.714h0a9.572,9.572,0,0,0-7.348,3.023h0a11.3,11.3,0,0,0-2.813,8.02h0A12.005,12.005,0,0,0,197,41.4h0a9.75,9.75,0,0,0,3.695,3.9h0a10.448,10.448,0,0,0,5.458,1.428h0a9.788,9.788,0,0,0,6.466-2.057h0a3.575,3.575,0,0,1,2.183-.84h0a2.448,2.448,0,0,1,1.512.546h0a2.677,2.677,0,0,1,1.134,2.1h0a2.208,2.208,0,0,1-.714,1.6h0a14.934,14.934,0,0,1-10.581,3.947h0a16.613,16.613,0,0,1-8.355-2.1h0a15.379,15.379,0,0,1-5.794-5.878h0a16.679,16.679,0,0,1-2.1-8.314h0a17.2,17.2,0,0,1,2.057-8.439h0a14.3,14.3,0,0,1,5.668-5.794h0a16.216,16.216,0,0,1,8.23-2.1Zm34.724,26.494h0a2.349,2.349,0,0,1,1.805.84h0a3.129,3.129,0,0,1,.714,2.1h0a2.712,2.712,0,0,1-.966,2.141h0a3.761,3.761,0,0,1-2.477.8h-1.05a9.913,9.913,0,0,1-5.29-1.47h0a10.841,10.841,0,0,1-3.737-4.115h0a12.283,12.283,0,0,1-1.344-5.794h0V25.864h-2.687a2.815,2.815,0,0,1-2.015-.714h0a2.329,2.329,0,0,1-.756-1.763h0a2.477,2.477,0,0,1,.756-1.889h0a2.922,2.922,0,0,1,2.015-.672h2.687V12.344h0a2.762,2.762,0,0,1,.84-2.1h0a2.762,2.762,0,0,1,2.1-.84h0a2.9,2.9,0,0,1,2.141.84h0a2.838,2.838,0,0,1,.8,2.1h0v8.481h5a2.922,2.922,0,0,1,2.015.672h0a2.477,2.477,0,0,1,.756,1.889h0a2.329,2.329,0,0,1-.756,1.763h0a2.815,2.815,0,0,1-2.015.714h-5V40.392h0a6.04,6.04,0,0,0,1.3,3.947h0a4.013,4.013,0,0,0,3.191,1.554h1.973Zm10.455-23.261h0a2.879,2.879,0,0,1,.882-2.183h0a2.983,2.983,0,0,1,2.141-.8h0a3.04,3.04,0,0,1,2.183.8h0a3.04,3.04,0,0,1,.8,2.183h0V48.789h0a2.983,2.983,0,0,1-.8,2.141h0a2.953,2.953,0,0,1-2.183.84h0a2.9,2.9,0,0,1-2.141-.84h0a2.828,2.828,0,0,1-.882-2.141h0Zm3.023-16h0a3.72,3.72,0,0,1,2.729,1.134h0a3.861,3.861,0,0,1,1.134,2.771h0a3.812,3.812,0,0,1-1.134,2.729h0a3.72,3.72,0,0,1-2.729,1.134h0a3.72,3.72,0,0,1-2.729-1.134h0a3.744,3.744,0,0,1-1.176-2.729h0a3.791,3.791,0,0,1,1.176-2.771h0a3.72,3.72,0,0,1,2.729-1.134Zm28.048,4.661h0a6.78,6.78,0,0,0-5.29,2.183h0a8.052,8.052,0,0,0-2.015,5.752h0v1.6h6a2.859,2.859,0,0,1,1.973.672h0a2.412,2.412,0,0,1,.8,1.889h0a2.273,2.273,0,0,1-.8,1.763h0a2.757,2.757,0,0,1-1.973.714h-6V48.789h0a2.954,2.954,0,0,1-.84,2.183h0a3.067,3.067,0,0,1-2.267.8h0a2.97,2.97,0,0,1-2.057-.8h0a2.953,2.953,0,0,1-.84-2.183h0V25.864h-2.519a2.909,2.909,0,0,1-2.015-.714h0a2.329,2.329,0,0,1-.756-1.763h0a2.477,2.477,0,0,1,.756-1.889h0a3.021,3.021,0,0,1,2.015-.672H268.8V19.818h0a15.387,15.387,0,0,1,1.68-7.348h0a12.3,12.3,0,0,1,4.7-4.871h0a13.752,13.752,0,0,1,6.928-1.721h0a3.178,3.178,0,0,1,2.141.756h0a2.482,2.482,0,0,1,.84,1.931h0a2.613,2.613,0,0,1-.84,1.973h0a3.178,3.178,0,0,1-2.141.756Zm32.246,8.649h0a2.364,2.364,0,0,1,1.847,2.267h0a3.615,3.615,0,0,1-.378,1.428h0L297.859,64.073h0a2.423,2.423,0,0,1-2.309,1.805h0a3.668,3.668,0,0,1-1.386-.336h0a2.464,2.464,0,0,1-1.763-2.309h0a3.245,3.245,0,0,1,.336-1.386h0l5.878-13.226L285.388,23.513h0a2.527,2.527,0,0,1-.294-1.218h0a2.353,2.353,0,0,1,.462-1.428h0a3.248,3.248,0,0,1,1.26-1.008h0a3.04,3.04,0,0,1,1.176-.21h0a2.582,2.582,0,0,1,2.435,1.638h0l10.791,21.372,9.447-21.33h0a2.453,2.453,0,0,1,2.309-1.679h0a3.236,3.236,0,0,1,1.386.294Z" fill="#e8e8e8"/>
    </g>
    <g id="_28a1056c-9d63-4bf3-bc14-bd8d75e81275" data-name="28a1056c-9d63-4bf3-bc14-bd8d75e81275" transform="translate(-16.776 -21.176)">
      <path id="Path_4" data-name="Path 4" d="M101.515,69.75a12.841,12.841,0,0,1,2.25.132A37.764,37.764,0,0,0,85.368,40.9a20.325,20.325,0,0,1-38.382,0,37.764,37.764,0,0,0-18.4,28.985,12.11,12.11,0,0,1,2.25-.132A20.391,20.391,0,0,1,51.221,90.132a20.613,20.613,0,0,1-6.088,14.559,37.816,37.816,0,0,0,42.353,0A20.4,20.4,0,0,1,101.515,69.75Z" fill="#e8e8e8"/>
      <path id="Path_5" data-name="Path 5" d="M66.176,47.25a13.037,13.037,0,1,0-13.1-12.971A13.133,13.133,0,0,0,66.176,47.25ZM30.838,77.029a13.1,13.1,0,1,0,13.1,13.1,13.307,13.307,0,0,0-13.1-13.1Zm70.676,0a13.1,13.1,0,1,0,13.1,13.1A13.133,13.133,0,0,0,101.515,77.029Z" fill="#e8e8e8"/>
    </g>
  </g>
</svg>
